<mxfile host="app.diagrams.net" modified="2022-01-29T16:59:43.228Z" agent="5.0 (Windows NT 10.0; Win64; x64) AppleWebKit/537.36 (KHTML, like Gecko) Chrome/97.0.4692.99 Safari/537.36" etag="T4ZrOXEijaKADSZR5kU5" version="16.5.2" type="github">
  <diagram id="203-2TvBIRLecfRKJMx9" name="Page-1">
    <mxGraphModel dx="1320" dy="1616" grid="0" gridSize="10" guides="1" tooltips="1" connect="1" arrows="1" fold="1" page="1" pageScale="1" pageWidth="850" pageHeight="1100" background="#9999FF" math="0" shadow="1">
      <root>
        <mxCell id="0" />
        <mxCell id="1" parent="0" />
        <mxCell id="yc7rX-6ab92KldBXuSYQ-30" value="" style="rounded=1;whiteSpace=wrap;html=1;" parent="1" vertex="1">
          <mxGeometry x="211" y="282" width="120" height="60" as="geometry" />
        </mxCell>
        <mxCell id="yc7rX-6ab92KldBXuSYQ-35" value="" style="rounded=1;whiteSpace=wrap;html=1;" parent="1" vertex="1">
          <mxGeometry x="211" y="189" width="120" height="60" as="geometry" />
        </mxCell>
        <mxCell id="yc7rX-6ab92KldBXuSYQ-1" value="" style="rounded=1;whiteSpace=wrap;html=1;" parent="1" vertex="1">
          <mxGeometry x="40" y="80" width="120" height="60" as="geometry" />
        </mxCell>
        <mxCell id="yc7rX-6ab92KldBXuSYQ-2" value="&lt;font style=&quot;font-size: 20px&quot;&gt;P&lt;/font&gt;" style="text;html=1;strokeColor=none;fillColor=none;align=center;verticalAlign=middle;whiteSpace=wrap;rounded=0;" parent="1" vertex="1">
          <mxGeometry x="59" y="93" width="60" height="30" as="geometry" />
        </mxCell>
        <mxCell id="yc7rX-6ab92KldBXuSYQ-3" value="" style="endArrow=classic;html=1;rounded=0;fontSize=20;" parent="1" edge="1">
          <mxGeometry width="50" height="50" relative="1" as="geometry">
            <mxPoint x="102" y="140" as="sourcePoint" />
            <mxPoint x="102" y="188" as="targetPoint" />
          </mxGeometry>
        </mxCell>
        <mxCell id="yc7rX-6ab92KldBXuSYQ-4" value="" style="rounded=1;whiteSpace=wrap;html=1;" parent="1" vertex="1">
          <mxGeometry x="40" y="187" width="120" height="60" as="geometry" />
        </mxCell>
        <mxCell id="yc7rX-6ab92KldBXuSYQ-5" value="&lt;font style=&quot;font-size: 20px&quot;&gt;C&lt;/font&gt;" style="text;html=1;strokeColor=none;fillColor=none;align=center;verticalAlign=middle;whiteSpace=wrap;rounded=0;" parent="1" vertex="1">
          <mxGeometry x="59" y="202" width="60" height="30" as="geometry" />
        </mxCell>
        <mxCell id="yc7rX-6ab92KldBXuSYQ-6" value="" style="rounded=1;whiteSpace=wrap;html=1;" parent="1" vertex="1">
          <mxGeometry x="211" y="78" width="120" height="60" as="geometry" />
        </mxCell>
        <mxCell id="yc7rX-6ab92KldBXuSYQ-7" value="&lt;font style=&quot;font-size: 20px&quot;&gt;P&lt;/font&gt;" style="text;html=1;strokeColor=none;fillColor=none;align=center;verticalAlign=middle;whiteSpace=wrap;rounded=0;" parent="1" vertex="1">
          <mxGeometry x="234" y="95" width="60" height="30" as="geometry" />
        </mxCell>
        <mxCell id="yc7rX-6ab92KldBXuSYQ-10" value="" style="endArrow=classic;html=1;rounded=0;fontSize=20;exitX=0.5;exitY=1;exitDx=0;exitDy=0;entryX=0.5;entryY=0;entryDx=0;entryDy=0;" parent="1" source="yc7rX-6ab92KldBXuSYQ-26" target="yc7rX-6ab92KldBXuSYQ-37" edge="1">
          <mxGeometry width="50" height="50" relative="1" as="geometry">
            <mxPoint x="480.5" y="352" as="sourcePoint" />
            <mxPoint x="481" y="360" as="targetPoint" />
          </mxGeometry>
        </mxCell>
        <mxCell id="yc7rX-6ab92KldBXuSYQ-11" value="" style="endArrow=classic;html=1;rounded=0;fontSize=20;" parent="1" edge="1">
          <mxGeometry width="50" height="50" relative="1" as="geometry">
            <mxPoint x="264" y="252" as="sourcePoint" />
            <mxPoint x="263.5" y="282" as="targetPoint" />
          </mxGeometry>
        </mxCell>
        <mxCell id="yc7rX-6ab92KldBXuSYQ-12" value="" style="endArrow=classic;html=1;rounded=0;fontSize=20;" parent="1" edge="1">
          <mxGeometry width="50" height="50" relative="1" as="geometry">
            <mxPoint x="690" y="140" as="sourcePoint" />
            <mxPoint x="639.5" y="197" as="targetPoint" />
          </mxGeometry>
        </mxCell>
        <mxCell id="yc7rX-6ab92KldBXuSYQ-13" value="" style="endArrow=classic;html=1;rounded=0;fontSize=20;entryX=0.408;entryY=0.017;entryDx=0;entryDy=0;entryPerimeter=0;" parent="1" target="yc7rX-6ab92KldBXuSYQ-27" edge="1">
          <mxGeometry width="50" height="50" relative="1" as="geometry">
            <mxPoint x="580" y="140" as="sourcePoint" />
            <mxPoint x="630" y="200" as="targetPoint" />
          </mxGeometry>
        </mxCell>
        <mxCell id="yc7rX-6ab92KldBXuSYQ-14" value="" style="endArrow=classic;html=1;rounded=0;fontSize=20;" parent="1" edge="1">
          <mxGeometry width="50" height="50" relative="1" as="geometry">
            <mxPoint x="460" y="140" as="sourcePoint" />
            <mxPoint x="534.5" y="197" as="targetPoint" />
          </mxGeometry>
        </mxCell>
        <mxCell id="yc7rX-6ab92KldBXuSYQ-15" value="" style="endArrow=classic;html=1;rounded=0;fontSize=20;" parent="1" edge="1">
          <mxGeometry width="50" height="50" relative="1" as="geometry">
            <mxPoint x="459.5" y="141" as="sourcePoint" />
            <mxPoint x="460" y="190" as="targetPoint" />
          </mxGeometry>
        </mxCell>
        <mxCell id="yc7rX-6ab92KldBXuSYQ-16" value="" style="endArrow=classic;html=1;rounded=0;fontSize=20;entryX=0.5;entryY=0;entryDx=0;entryDy=0;" parent="1" target="yc7rX-6ab92KldBXuSYQ-33" edge="1">
          <mxGeometry width="50" height="50" relative="1" as="geometry">
            <mxPoint x="460" y="140" as="sourcePoint" />
            <mxPoint x="440" y="186" as="targetPoint" />
          </mxGeometry>
        </mxCell>
        <mxCell id="yc7rX-6ab92KldBXuSYQ-17" value="" style="endArrow=classic;html=1;rounded=0;fontSize=20;" parent="1" edge="1">
          <mxGeometry width="50" height="50" relative="1" as="geometry">
            <mxPoint x="263.5" y="141" as="sourcePoint" />
            <mxPoint x="263.5" y="189" as="targetPoint" />
          </mxGeometry>
        </mxCell>
        <mxCell id="yc7rX-6ab92KldBXuSYQ-24" value="&lt;font style=&quot;font-size: 20px&quot;&gt;CC&lt;/font&gt;" style="text;html=1;strokeColor=none;fillColor=none;align=center;verticalAlign=middle;whiteSpace=wrap;rounded=0;" parent="1" vertex="1">
          <mxGeometry x="234" y="297" width="60" height="30" as="geometry" />
        </mxCell>
        <mxCell id="yc7rX-6ab92KldBXuSYQ-25" value="&lt;font style=&quot;font-size: 20px&quot;&gt;C&lt;/font&gt;" style="text;html=1;strokeColor=none;fillColor=none;align=center;verticalAlign=middle;whiteSpace=wrap;rounded=0;" parent="1" vertex="1">
          <mxGeometry x="234" y="204" width="60" height="30" as="geometry" />
        </mxCell>
        <mxCell id="yc7rX-6ab92KldBXuSYQ-26" value="P" style="rounded=1;whiteSpace=wrap;html=1;" parent="1" vertex="1">
          <mxGeometry x="436" y="282" width="90" height="60" as="geometry" />
        </mxCell>
        <mxCell id="yc7rX-6ab92KldBXuSYQ-27" value="&lt;font style=&quot;font-size: 20px&quot;&gt;C&lt;/font&gt;" style="rounded=1;whiteSpace=wrap;html=1;" parent="1" vertex="1">
          <mxGeometry x="580" y="197" width="120" height="60" as="geometry" />
        </mxCell>
        <mxCell id="yc7rX-6ab92KldBXuSYQ-28" value="&lt;font style=&quot;font-size: 20px&quot;&gt;P2&lt;/font&gt;" style="rounded=1;whiteSpace=wrap;html=1;" parent="1" vertex="1">
          <mxGeometry x="670" y="78" width="50" height="60" as="geometry" />
        </mxCell>
        <mxCell id="yc7rX-6ab92KldBXuSYQ-29" value="&lt;font style=&quot;font-size: 20px&quot;&gt;P1&lt;/font&gt;" style="rounded=1;whiteSpace=wrap;html=1;" parent="1" vertex="1">
          <mxGeometry x="556" y="78" width="54" height="60" as="geometry" />
        </mxCell>
        <mxCell id="yc7rX-6ab92KldBXuSYQ-31" value="&lt;font style=&quot;font-size: 20px&quot;&gt;C3&lt;/font&gt;" style="rounded=1;whiteSpace=wrap;html=1;" parent="1" vertex="1">
          <mxGeometry x="510" y="197" width="50" height="60" as="geometry" />
        </mxCell>
        <mxCell id="yc7rX-6ab92KldBXuSYQ-32" value="&lt;font style=&quot;font-size: 20px&quot;&gt;C2&lt;/font&gt;" style="rounded=1;whiteSpace=wrap;html=1;" parent="1" vertex="1">
          <mxGeometry x="436" y="197" width="54" height="60" as="geometry" />
        </mxCell>
        <mxCell id="yc7rX-6ab92KldBXuSYQ-33" value="&lt;font style=&quot;font-size: 20px&quot;&gt;C1&lt;/font&gt;" style="rounded=1;whiteSpace=wrap;html=1;" parent="1" vertex="1">
          <mxGeometry x="370" y="197" width="50" height="60" as="geometry" />
        </mxCell>
        <mxCell id="yc7rX-6ab92KldBXuSYQ-34" value="&lt;font style=&quot;font-size: 20px&quot;&gt;P&lt;/font&gt;" style="rounded=1;whiteSpace=wrap;html=1;" parent="1" vertex="1">
          <mxGeometry x="400" y="78" width="120" height="60" as="geometry" />
        </mxCell>
        <mxCell id="yc7rX-6ab92KldBXuSYQ-37" value="C" style="rounded=1;whiteSpace=wrap;html=1;" parent="1" vertex="1">
          <mxGeometry x="436" y="370" width="90" height="60" as="geometry" />
        </mxCell>
        <mxCell id="yc7rX-6ab92KldBXuSYQ-39" value="" style="endArrow=classic;html=1;rounded=0;fontSize=20;exitX=0.5;exitY=1;exitDx=0;exitDy=0;startArrow=none;" parent="1" source="yc7rX-6ab92KldBXuSYQ-38" edge="1">
          <mxGeometry width="50" height="50" relative="1" as="geometry">
            <mxPoint x="481" y="460" as="sourcePoint" />
            <mxPoint x="480.5" y="500" as="targetPoint" />
          </mxGeometry>
        </mxCell>
        <mxCell id="yc7rX-6ab92KldBXuSYQ-40" value="&lt;font style=&quot;font-size: 14px&quot; color=&quot;#ff0000&quot;&gt;Single &lt;br&gt;Inheritence&lt;/font&gt;" style="ellipse;shape=cloud;whiteSpace=wrap;html=1;fontFamily=Helvetica;fontSize=20;fontColor=default;" parent="1" vertex="1">
          <mxGeometry x="20" y="-10" width="120" height="80" as="geometry" />
        </mxCell>
        <mxCell id="yc7rX-6ab92KldBXuSYQ-41" value="&lt;font style=&quot;font-size: 14px&quot;&gt;Hybrid&lt;br&gt;Inheritence&lt;/font&gt;" style="ellipse;shape=cloud;whiteSpace=wrap;html=1;fontFamily=Helvetica;fontSize=20;fontColor=default;" parent="1" vertex="1">
          <mxGeometry x="570" y="320" width="120" height="80" as="geometry" />
        </mxCell>
        <mxCell id="yc7rX-6ab92KldBXuSYQ-42" value="&lt;font style=&quot;font-size: 14px&quot; color=&quot;#ff0000&quot;&gt;Multiple&lt;br&gt;Inheritence&lt;/font&gt;" style="ellipse;shape=cloud;whiteSpace=wrap;html=1;fontFamily=Helvetica;fontSize=20;fontColor=default;" parent="1" vertex="1">
          <mxGeometry x="580" y="-10" width="120" height="80" as="geometry" />
        </mxCell>
        <mxCell id="yc7rX-6ab92KldBXuSYQ-43" value="&lt;font style=&quot;font-size: 14px&quot; color=&quot;#ff0000&quot;&gt;Hierarchial&lt;br&gt;Inheritence&lt;/font&gt;" style="ellipse;shape=cloud;whiteSpace=wrap;html=1;fontFamily=Helvetica;fontSize=20;fontColor=default;" parent="1" vertex="1">
          <mxGeometry x="400" y="-10" width="120" height="80" as="geometry" />
        </mxCell>
        <mxCell id="yc7rX-6ab92KldBXuSYQ-44" value="&lt;font style=&quot;font-size: 14px&quot; color=&quot;#ff0000&quot;&gt;Multi-level&lt;br&gt;Inheritence&lt;/font&gt;" style="ellipse;shape=cloud;whiteSpace=wrap;html=1;fontFamily=Helvetica;fontSize=20;fontColor=default;" parent="1" vertex="1">
          <mxGeometry x="204" y="-10" width="120" height="80" as="geometry" />
        </mxCell>
        <mxCell id="yc7rX-6ab92KldBXuSYQ-45" value="" style="shape=flexArrow;endArrow=classic;html=1;rounded=0;labelBackgroundColor=default;fontFamily=Helvetica;fontSize=14;fontColor=default;strokeColor=default;" parent="1" edge="1">
          <mxGeometry width="50" height="50" relative="1" as="geometry">
            <mxPoint x="610" y="388" as="sourcePoint" />
            <mxPoint x="560" y="438" as="targetPoint" />
          </mxGeometry>
        </mxCell>
        <mxCell id="yc7rX-6ab92KldBXuSYQ-38" value="CC(P,C)" style="rounded=1;whiteSpace=wrap;html=1;" parent="1" vertex="1">
          <mxGeometry x="436" y="460" width="90" height="60" as="geometry" />
        </mxCell>
        <mxCell id="yc7rX-6ab92KldBXuSYQ-47" value="" style="endArrow=classic;html=1;rounded=0;fontSize=20;exitX=0.5;exitY=1;exitDx=0;exitDy=0;entryX=0.5;entryY=0;entryDx=0;entryDy=0;" parent="1" edge="1">
          <mxGeometry width="50" height="50" relative="1" as="geometry">
            <mxPoint x="480.5" y="430" as="sourcePoint" />
            <mxPoint x="480.5" y="458" as="targetPoint" />
          </mxGeometry>
        </mxCell>
      </root>
    </mxGraphModel>
  </diagram>
</mxfile>
